<svg width="512" height="512" viewBox="0 0 512 512" fill="none" xmlns="http://www.w3.org/2000/svg">
  <defs>
    <radialGradient id="bg" cx="0" cy="0" r="1" gradientUnits="userSpaceOnUse" gradientTransform="translate(152 122) rotate(40) scale(472)">
      <stop stop-color="#1D2346"/>
      <stop offset="0.54" stop-color="#111736"/>
      <stop offset="1" stop-color="#080B14"/>
    </radialGradient>
    <linearGradient id="bot" x1="160" y1="132" x2="366" y2="362" gradientUnits="userSpaceOnUse">
      <stop stop-color="#B49FFF"/>
      <stop offset="0.49" stop-color="#8A6EFF"/>
      <stop offset="1" stop-color="#63E9FF"/>
    </linearGradient>
    <linearGradient id="visor" x1="192" y1="190" x2="322" y2="288" gradientUnits="userSpaceOnUse">
      <stop stop-color="#242D56"/>
      <stop offset="1" stop-color="#151B37"/>
    </linearGradient>
  </defs>

  <rect x="32" y="32" width="448" height="448" rx="118" fill="url(#bg)"/>

  <circle cx="256" cy="248" r="128" stroke="#86EEFF" stroke-opacity="0.18" stroke-width="10"/>
  <circle cx="256" cy="248" r="156" stroke="#9A86FF" stroke-opacity="0.12" stroke-width="8"/>

  <path d="M256 102C275 102 290 117 290 136V147C320 156 346 179 360 209C373 238 373 271 359 301C345 332 319 355 286 364H226C193 355 167 332 153 301C139 271 139 238 152 209C166 179 192 156 222 147V136C222 117 237 102 256 102Z" fill="url(#bot)"/>
  <rect x="184" y="186" width="144" height="106" rx="50" fill="url(#visor)"/>
  <ellipse cx="224" cy="238" rx="16" ry="18" fill="#E3F9FF"/>
  <ellipse cx="288" cy="238" rx="16" ry="18" fill="#E3F9FF"/>
  <circle cx="230" cy="234" r="5" fill="#12172F"/>
  <circle cx="294" cy="234" r="5" fill="#12172F"/>
  <path d="M226 274C235 283 247 288 260 288C273 288 285 283 294 274" stroke="#B4F0FF" stroke-width="8" stroke-linecap="round"/>
  <circle cx="256" cy="134" r="14" fill="#D2C6FF"/>
</svg>
